<?xml version="1.0" standalone="no"?>
<!DOCTYPE svg PUBLIC "-//W3C//DTD SVG 20010904//EN"
 "http://www.w3.org/TR/2001/REC-SVG-20010904/DTD/svg10.dtd">
<svg version="1.0" xmlns="http://www.w3.org/2000/svg"
 width="821.000000pt" height="821.000000pt" viewBox="0 0 821.000000 821.000000"
 preserveAspectRatio="xMidYMid meet">
<metadata>
Created by potrace 1.14, written by Peter Selinger 2001-2017
</metadata>
<g transform="translate(0.000000,821.000000) scale(0.100000,-0.100000)"
fill="#000000" stroke="none">
<path d="M3958 8065 c-2 -2 -46 -5 -98 -9 -52 -3 -113 -8 -135 -11 -22 -2 -62
-7 -90 -10 -27 -3 -59 -7 -70 -9 -11 -2 -48 -7 -82 -11 -35 -4 -63 -10 -63
-14 0 -3 -10 -7 -22 -8 -13 0 -34 -3 -48 -6 -14 -3 -39 -8 -57 -11 -56 -11
-85 -25 -77 -38 4 -7 3 -10 -1 -5 -5 4 -173 -157 -374 -357 -201 -201 -448
-446 -548 -545 -100 -98 -178 -183 -175 -187 4 -4 2 -4 -4 -1 -12 7 -46 -28
-36 -38 4 -4 0 -5 -8 -3 -8 1 -14 -3 -12 -10 1 -6 -4 -11 -10 -10 -7 2 -12 -3
-10 -10 1 -6 -1 -11 -5 -10 -13 4 -52 -35 -46 -45 3 -6 2 -7 -4 -4 -13 8 -56
-37 -46 -47 5 -4 1 -6 -7 -4 -8 1 -14 -3 -12 -10 1 -6 -2 -11 -7 -10 -4 2
-184 -172 -399 -386 -216 -215 -398 -394 -407 -398 -8 -5 -15 -16 -15 -25 0
-9 -2 -14 -5 -11 -8 7 -75 -58 -75 -73 0 -7 -3 -10 -6 -6 -8 7 -34 -17 -34
-32 0 -6 -7 -11 -16 -11 -8 0 -12 -4 -9 -10 3 -5 1 -10 -5 -10 -13 0 -119
-108 -112 -115 3 -3 0 -5 -6 -5 -6 0 -130 -118 -275 -262 -195 -193 -267 -272
-275 -298 -12 -38 -24 -94 -27 -126 -1 -11 -4 -24 -7 -30 -3 -5 -9 -34 -13
-64 -4 -30 -9 -62 -10 -70 -2 -8 -6 -40 -9 -71 -4 -31 -8 -65 -10 -76 -26
-131 -26 -602 -1 -828 13 -116 24 -194 31 -225 3 -14 6 -34 8 -45 6 -63 31
-175 39 -175 4 0 6 -4 3 -8 -3 -5 -1 -26 5 -47 6 -20 12 -46 14 -56 11 -57 76
-272 102 -339 4 -8 7 -17 8 -20 5 -22 31 -92 45 -125 10 -22 23 -55 30 -72 7
-18 17 -33 22 -33 5 0 6 -4 3 -10 -3 -5 0 -22 8 -37 9 -16 43 -84 77 -153 34
-69 67 -128 72 -131 5 -3 10 -10 10 -15 1 -20 18 -54 28 -54 5 0 9 -3 8 -7 -3
-13 25 -63 34 -63 5 0 7 -4 4 -9 -3 -5 5 -20 19 -35 13 -14 22 -26 19 -26 -2
0 17 -31 42 -70 26 -38 51 -70 55 -70 5 0 8 -4 6 -8 -2 -7 94 -145 113 -162 3
-3 20 -25 39 -50 19 -25 45 -56 58 -70 12 -14 36 -42 52 -62 15 -21 31 -35 35
-31 3 3 6 -1 6 -10 0 -9 6 -17 14 -17 8 0 18 -5 22 -12 5 -7 3 -8 -7 -3 -12 8
-12 6 0 -8 7 -9 17 -14 22 -11 5 3 8 0 7 -8 -2 -7 3 -12 10 -10 8 1 11 -1 8
-6 -6 -10 91 -107 108 -107 6 0 11 -5 11 -11 0 -14 30 -44 44 -44 6 0 10 -3 9
-8 -2 -4 -1 -8 2 -8 3 -1 25 -21 50 -45 49 -47 97 -88 150 -129 18 -14 38 -31
46 -38 8 -7 14 -11 14 -7 0 3 10 -4 23 -17 13 -13 50 -41 82 -63 33 -22 68
-48 79 -57 11 -10 28 -20 38 -24 10 -3 18 -10 18 -15 0 -5 6 -9 14 -9 7 0 19
-7 26 -15 7 -8 16 -13 20 -10 4 3 11 -2 14 -11 3 -8 10 -12 16 -9 5 3 10 2 10
-3 0 -5 12 -15 27 -22 16 -8 40 -23 56 -33 15 -10 27 -15 27 -11 0 4 11 -3 25
-16 14 -13 25 -19 25 -14 0 5 4 4 8 -2 10 -16 228 -124 236 -117 3 4 6 2 6 -4
0 -8 47 -34 70 -39 3 0 16 -5 30 -11 14 -6 28 -10 31 -9 3 0 12 -4 20 -11 12
-10 135 -60 164 -67 6 -1 27 -10 49 -19 21 -9 42 -15 46 -12 5 3 11 1 15 -5 4
-6 11 -8 16 -5 5 4 9 2 9 -3 0 -8 51 -24 85 -27 6 0 15 -3 20 -6 6 -4 24 -10
40 -14 17 -5 35 -9 40 -11 98 -27 134 -36 155 -39 32 -6 65 -13 65 -15 0 -1 9
-3 20 -5 11 -1 36 -6 55 -10 19 -4 47 -8 63 -9 15 0 27 -4 27 -7 0 -3 12 -7
28 -8 39 -2 72 -7 112 -15 19 -3 67 -9 105 -12 39 -3 102 -8 140 -11 195 -15
624 -3 775 23 19 3 53 7 75 10 40 4 80 11 80 14 0 1 15 3 34 6 33 4 69 11 101
19 8 2 25 4 37 4 15 1 82 60 200 177 98 97 562 557 1031 1023 469 465 1064
1056 1323 1313 457 454 471 469 484 520 8 29 16 69 19 88 2 19 7 46 10 60 3
14 8 42 11 63 3 20 7 52 10 70 23 150 30 278 30 527 0 217 -7 378 -20 451 -5
27 -16 111 -20 149 -4 37 -32 181 -51 258 -8 37 -17 77 -20 89 -8 39 -73 256
-100 333 -135 386 -319 731 -567 1064 -35 46 -149 190 -163 203 -6 7 -15 9
-19 5 -5 -4 -5 -2 -2 4 14 25 -286 323 -508 503 -114 91 -357 261 -375 261 -5
0 -10 5 -10 10 0 6 -4 10 -8 10 -5 0 -47 23 -93 51 -173 104 -493 250 -713
324 -169 58 -404 120 -414 110 -3 -3 -10 0 -17 5 -6 5 -29 12 -51 16 -21 3
-57 9 -79 14 -74 16 -217 36 -415 56 -48 5 -468 13 -472 9z"/>
</g>
</svg>
